# xmcd
#
# Track frame offsets:
#	150
#	19077
#	41942
#	69339
#	86476
#	102963
#	124979
#	158430
#	174401
#
# Disc length: 2602 seconds
# Revision: 0
# Processed by: cddbd v1.5.2PL0 Copyright (c) Steve Scherf et al.
# Submitted via: dBpowerAMP V12.0
#
DISCID=6b0a2809
DTITLE=John Mayall - Back To The Roots
DYEAR=1971
DGENRE=Blues
TTITLE0=Prisons On The Road
TTITLE1=My Children
TTITLE2=Accidental Suicide
TTITLE3=Groupie Girl
TTITLE4=Blue Fox
TTITLE5=Home Again
TTITLE6=Television Eye
TTITLE7=Marriage Madness
TTITLE8=Looking At Tomorrow
EXTD=
EXTT0=
EXTT1=
EXTT2=
EXTT3=
EXTT4=
EXTT5=
EXTT6=
EXTT7=
EXTT8=
PLAYORDER=
